<svg width="1920" height="937" viewBox="0 0 1920 937" fill="none" xmlns="http://www.w3.org/2000/svg">
<rect width="56.5003" height="937" fill="#F5CE01"/>
<rect x="1863.5" width="56.5003" height="937" fill="#F5CE01"/>
<rect x="838.424" width="243.153" height="937" fill="#F5CE01"/>
<ellipse cx="203.3" cy="683.192" rx="42.8797" ry="40.9747" fill="url(#paint0_radial)"/>
<ellipse cx="203.3" cy="684.243" rx="18.377" ry="17.8608" fill="white"/>
<ellipse cx="1721.74" cy="683.192" rx="42.8797" ry="40.9747" fill="url(#paint1_radial)"/>
<ellipse cx="1721.74" cy="684.243" rx="18.377" ry="17.8608" fill="white"/>
<ellipse cx="203.3" cy="465.602" rx="42.8797" ry="40.9747" fill="url(#paint2_radial)"/>
<ellipse cx="203.3" cy="466.653" rx="18.377" ry="17.8608" fill="white"/>
<ellipse cx="1721.74" cy="465.602" rx="42.8797" ry="40.9747" fill="url(#paint3_radial)"/>
<ellipse cx="1721.74" cy="466.653" rx="18.377" ry="17.8608" fill="white"/>
<ellipse cx="203.3" cy="257.432" rx="42.8797" ry="40.9747" fill="url(#paint4_radial)"/>
<ellipse cx="203.3" cy="258.482" rx="18.377" ry="17.8608" fill="white"/>
<ellipse cx="1721.74" cy="257.432" rx="42.8797" ry="40.9747" fill="url(#paint5_radial)"/>
<ellipse cx="1721.74" cy="258.482" rx="18.377" ry="17.8608" fill="white"/>
<defs>
<radialGradient id="paint0_radial" cx="0" cy="0" r="1" gradientUnits="userSpaceOnUse" gradientTransform="translate(203.3 683.192) rotate(90) scale(40.9747 42.8797)">
<stop stop-color="#414141"/>
<stop offset="1" stop-color="#C4C4C4"/>
</radialGradient>
<radialGradient id="paint1_radial" cx="0" cy="0" r="1" gradientUnits="userSpaceOnUse" gradientTransform="translate(1721.74 683.192) rotate(90) scale(40.9747 42.8797)">
<stop stop-color="#414141"/>
<stop offset="1" stop-color="#C4C4C4"/>
</radialGradient>
<radialGradient id="paint2_radial" cx="0" cy="0" r="1" gradientUnits="userSpaceOnUse" gradientTransform="translate(203.3 465.602) rotate(90) scale(40.9747 42.8797)">
<stop stop-color="#00181A"/>
<stop offset="1" stop-color="#00C0CC"/>
</radialGradient>
<radialGradient id="paint3_radial" cx="0" cy="0" r="1" gradientUnits="userSpaceOnUse" gradientTransform="translate(1721.74 465.602) rotate(90) scale(40.9747 42.8797)">
<stop stop-color="#00181A"/>
<stop offset="1" stop-color="#00C0CC"/>
</radialGradient>
<radialGradient id="paint4_radial" cx="0" cy="0" r="1" gradientUnits="userSpaceOnUse" gradientTransform="translate(203.3 257.432) rotate(90) scale(40.9747 42.8797)">
<stop stop-color="#730000"/>
<stop offset="1" stop-color="#FF0000"/>
</radialGradient>
<radialGradient id="paint5_radial" cx="0" cy="0" r="1" gradientUnits="userSpaceOnUse" gradientTransform="translate(1721.74 257.432) rotate(90) scale(40.9747 42.8797)">
<stop stop-color="#730000"/>
<stop offset="1" stop-color="#FF0000"/>
</radialGradient>
</defs>
</svg>
